<?xml version="1.0" encoding="UTF-8" standalone="no"?><!DOCTYPE svg PUBLIC "-//W3C//DTD SVG 1.1//EN" "http://www.w3.org/Graphics/SVG/1.1/DTD/svg11.dtd"><svg width="100%" height="100%" viewBox="0 0 1800 1800" version="1.1" xmlns="http://www.w3.org/2000/svg" xmlns:xlink="http://www.w3.org/1999/xlink" xml:space="preserve" xmlns:serif="http://www.serif.com/" style="fill-rule:evenodd;clip-rule:evenodd;stroke-linejoin:round;stroke-miterlimit:2;"><rect id="Artboard1" x="0" y="0" width="1800" height="1800" style="fill:none;"/><g id="Artboard11" serif:id="Artboard1"><g id="II-EFFICIENT" serif:id="II EFFICIENT"><path d="M529.458,911.782l-81.424,0l0,-31.749l74.414,0l0,-32.66l-74.414,-0l0,-31.272l79.08,-0l-0,-32.661l-121.094,0l0,161.003l123.438,-0l-0,-32.661Z" style="fill:#fff;fill-rule:nonzero;stroke:#fff;stroke-width:4.17px;"/><path d="M597.134,816.101l79.08,-0l-0,-32.661l-121.094,0l0,161.003l42.014,-0l-0,-64.41l72.092,0l0,-32.66l-72.092,-0l-0,-31.272Z" style="fill:#fff;fill-rule:nonzero;stroke:#fff;stroke-width:4.17px;"/><path d="M740.634,816.101l79.08,-0l-0,-32.661l-121.094,0l0,161.003l42.014,-0l-0,-64.41l72.092,0l0,-32.66l-72.092,-0l-0,-31.272Z" style="fill:#fff;fill-rule:nonzero;stroke:#fff;stroke-width:4.17px;"/><rect x="842.12" y="783.44" width="42.014" height="161.003" style="fill:#fff;fill-rule:nonzero;stroke:#fff;stroke-width:4.17px;"/><path d="M988.889,780.185c-43.641,0 -79.557,28.928 -79.557,84.918c0,54.6 34.766,82.617 77.93,82.617c40.364,-0 69.987,-19.835 73.958,-58.572l0.239,-2.344l-41.992,0l-0.478,2.344c-3.494,17.73 -13.997,27.756 -30.338,27.756c-18.664,-0 -35.46,-13.759 -35.46,-54.362c-0,-34.766 15.169,-51.563 35.243,-51.563c17.014,0 27.517,8.16 31.033,25.434l0.455,2.323l41.993,-0l-0.217,-2.323c-3.277,-31.727 -26.845,-56.228 -72.809,-56.228Z" style="fill:#fff;fill-rule:nonzero;stroke:#fff;stroke-width:4.17px;"/><rect x="1086.65" y="783.44" width="42.014" height="161.003" style="fill:#fff;fill-rule:nonzero;stroke:#fff;stroke-width:4.17px;"/><path d="M1283.36,911.782l-81.424,0l-0,-31.749l74.414,0l-0,-32.66l-74.414,-0l-0,-31.272l79.08,-0l-0,-32.661l-121.094,0l0,161.003l123.438,-0l-0,-32.661Z" style="fill:#fff;fill-rule:nonzero;stroke:#fff;stroke-width:4.17px;"/><path d="M1463.01,944.443l0,-161.003l-41.992,0l-0,68.837c-0,9.332 0.239,25.89 1.41,42.231l-61.132,-111.068l-52.279,0l0,161.003l42.014,-0l-0,-66.493c-0,-9.332 -0,-23.568 -1.411,-39.909l58.572,106.402l54.818,-0Z" style="fill:#fff;fill-rule:nonzero;stroke:#fff;stroke-width:4.17px;"/><path d="M1625.43,816.101l0,-32.661l-146.528,0l0,32.661l52.257,-0l0,128.342l41.992,-0l0,-128.342l52.279,-0Z" style="fill:#fff;fill-rule:nonzero;stroke:#fff;stroke-width:4.17px;"/><path d="M155.231,788.204l-0,30.816l14.692,0l-0,101.259l-14.692,0l-0,31.033l77.452,0l0,-31.033l-14.453,0l0,-101.259l14.453,0l0,-30.816l-77.452,0Z" style="fill:#fff;fill-rule:nonzero;stroke:#fff;stroke-width:4.17px;"/><path d="M245.531,788.204l-0,30.816l14.692,0l-0,101.259l-14.692,0l-0,31.033l77.452,0l0,-31.033l-14.453,0l0,-101.259l14.453,0l0,-30.816l-77.452,0Z" style="fill:#fff;fill-rule:nonzero;stroke:#fff;stroke-width:4.17px;"/></g><g id="MEDIA"><path d="M691.901,1142.46l-19.531,-63.628l-0.521,-0c0.694,12.977 1.042,21.614 1.042,25.954l-0,37.674l-15.278,0l-0,-81.076l23.351,-0l19.184,61.979l0.347,-0l20.312,-61.979l23.438,-0l-0,81.076l-16.059,0l-0,-38.368c-0,-1.78 0.022,-3.863 0.087,-6.25c0.043,-2.365 0.303,-8.637 0.781,-18.837l-0.521,0l-20.92,63.455l-15.712,0Z" style="fill:#fff;fill-rule:nonzero;stroke:#fff;stroke-width:4.17px;"/><path d="M845.851,1142.46l-46.615,0l0,-81.076l46.615,-0l-0,14.062l-29.427,0l-0,17.795l27.43,0l0,14.15l-27.43,-0l-0,20.833l29.427,-0l-0,14.236Z" style="fill:#fff;fill-rule:nonzero;stroke:#fff;stroke-width:4.17px;"/><path d="M964.607,1101.14c-0,13.368 -3.798,23.611 -11.372,30.729c-7.595,7.074 -18.554,10.59 -32.899,10.59l-22.917,0l0,-81.076l25.434,-0c13.195,-0 23.438,3.515 30.73,10.503c7.335,7.01 11.024,16.754 11.024,29.254Zm-17.795,0.434c-0,-17.405 -7.704,-26.129 -23.091,-26.129l-9.114,0l-0,52.778l7.292,-0c16.601,-0 24.913,-8.876 24.913,-26.649Z" style="fill:#fff;fill-rule:nonzero;stroke:#fff;stroke-width:4.17px;"/><rect x="1016.05" y="1061.38" width="17.188" height="81.076" style="fill:#fff;fill-rule:nonzero;stroke:#fff;stroke-width:4.17px;"/><path d="M1137.81,1142.46l-5.903,-19.271l-29.514,0l-5.903,19.271l-18.489,0l28.646,-81.424l21.006,0l28.646,81.424l-18.489,0Zm-9.983,-33.681c-5.447,-17.469 -8.507,-27.365 -9.201,-29.687c-0.651,-2.3 -1.107,-4.123 -1.389,-5.469c-1.281,4.753 -4.775,16.472 -10.504,35.156l21.094,0Z" style="fill:#fff;fill-rule:nonzero;stroke:#fff;stroke-width:4.17px;"/></g></g></svg>