<svg width="24" height="24" viewBox="0 0 24 24" fill="none" xmlns="http://www.w3.org/2000/svg" data-reactroot="">
<path fill="#5db5f9" d="M19.5 22H4.5C3.12 22 2 20.88 2 19.5V4.5C2 3.12 3.12 2 4.5 2H19.5C20.88 2 22 3.12 22 4.5V19.5C22 20.88 20.88 22 19.5 22Z" undefined="1"></path>
<path stroke-linejoin="round" stroke-linecap="round" stroke-miterlimit="10" stroke-width="1" stroke="white" d="M9.5 11C7.57 11 6 12.57 6 14.5C6 16.43 7.57 18 9.5 18C9.62 18 9.75 17.99 9.87 17.98C10.99 17.86 11.95 17.21 12.5 16.29C12.82 15.77 13 15.15 13 14.5V6C13 6 14.58 10.82 18 10"></path>
</svg>
