<svg xmlns="http://www.w3.org/2000/svg" xmlns:xlink="http://www.w3.org/1999/xlink" width="500" zoomAndPan="magnify" viewBox="0 0 375 374.999991" height="500" preserveAspectRatio="xMidYMid meet" version="1.0"><defs><clipPath id="cc9c297cc5"><path d="M 133.234375 92 L 298.191406 92 L 298.191406 283 L 133.234375 283 Z M 133.234375 92 " clip-rule="nonzero"/></clipPath><clipPath id="b442f62cc1"><path d="M 76.414062 93.382812 L 239.703125 93.382812 L 239.703125 281.667969 L 76.414062 281.667969 Z M 76.414062 93.382812 " clip-rule="nonzero"/></clipPath><clipPath id="af33cb1daa"><path d="M 86.652344 110.183594 L 221.96875 110.183594 L 221.96875 265 L 86.652344 265 Z M 86.652344 110.183594 " clip-rule="nonzero"/></clipPath><clipPath id="35424e002e"><path d="M 221.96875 187.507812 L 86.652344 264.828125 L 86.652344 110.183594 Z M 221.96875 187.507812 " clip-rule="nonzero"/></clipPath></defs><g clip-path="url(#cc9c297cc5)"><path fill="#38b6ff" d="M 132.894531 282.929688 L 132.894531 92.054688 L 298.191406 187.492188 Z M 135.605469 96.75 L 135.605469 278.234375 L 292.769531 187.492188 Z M 135.605469 96.75 " fill-opacity="1" fill-rule="nonzero"/></g><path fill="#38b6ff" d="M 141.101562 266.742188 L 141.101562 108.238281 L 278.339844 187.492188 Z M 143.8125 112.933594 L 143.8125 262.046875 L 272.921875 187.492188 Z M 143.8125 112.933594 " fill-opacity="1" fill-rule="nonzero"/><g clip-path="url(#b442f62cc1)"><path fill="#ff1616" d="M 76.777344 281.570312 L 76.777344 93.429688 L 239.703125 187.5 Z M 79.449219 98.058594 L 79.449219 276.941406 L 234.363281 187.5 Z M 79.449219 98.058594 " fill-opacity="1" fill-rule="nonzero"/></g><path fill="#ff1616" d="M 84.867188 265.613281 L 84.867188 109.382812 L 220.136719 187.5 Z M 87.539062 114.011719 L 87.539062 260.988281 L 214.796875 187.5 Z M 87.539062 114.011719 " fill-opacity="1" fill-rule="nonzero"/><g clip-path="url(#af33cb1daa)"><g clip-path="url(#35424e002e)"><path fill="#ff1616" d="M 221.96875 110.183594 L 221.96875 265.054688 L 86.652344 265.054688 L 86.652344 110.183594 Z M 221.96875 110.183594 " fill-opacity="1" fill-rule="nonzero"/></g></g></svg>